# xmcd
#
# Track frame offsets: 
#        150
#        11226
#        24385
#        35999
#        50271
#        60865
#        73911
#        86539
#        101158
#        114365
#        125405
#        138687
#        152268
#        163929
#        178383
#        188259
#        199317
#        208056
#        220008
#        233012
#        244702
#        254023
#        266603
#        276276
#        286826
#        296245
#        307876
#        316102
#        327785
#
# Disc length: 4499 seconds
#
# Revision: 0
# Processed by: cddbd v1.5.2PL0 Copyright (c) Steve Scherf et al.
# Submitted via: ExactAudioCopy v1.3
#
DISCID=af11911d
DTITLE=Little Milton - Chicago Blues and Soul Via Memphis and St. Loui
DTITLE=s - His Early Years 1953-1962
DYEAR=2014
DGENRE=Blues
TTITLE0=Beggin' My Baby
TTITLE1=Somebody Told Me
TTITLE2=If You Love Me Baby
TTITLE3=Alone and Blue
TTITLE4=Homesick for My Baby
TTITLE5=Lookin' for My Baby
TTITLE6=Love at First Sight
TTITLE7=Let's Boogie Baby
TTITLE8=Let My Baby Be
TTITLE9=Ooh My Little Baby
TTITLE10=That Will Never Do
TTITLE11=I'm a Lonely Man
TTITLE12=Long Distance Operator
TTITLE13=I Found Me a New Love
TTITLE14=Strange Dreams
TTITLE15=Strange Dreams
TTITLE16=Hold Me Tight
TTITLE17=Same Old Blues
TTITLE18=Dead Love
TTITLE19=My Baby Pleases Me
TTITLE20=Hey Girl
TTITLE21=Cross My Heart
TTITLE22=I'm in Love
TTITLE23=Lonely No More
TTITLE24=I Need Somebody
TTITLE25=So Mean to Me
TTITLE26=Someone to Love
TTITLE27=Losing Hand
TTITLE28=I Wonder Why
EXTD=
EXTT0=
EXTT1=
EXTT2=
EXTT3=
EXTT4=
EXTT5=
EXTT6=
EXTT7=
EXTT8=
EXTT9=
EXTT10=
EXTT11=
EXTT12=
EXTT13=
EXTT14=
EXTT15=
EXTT16=
EXTT17=
EXTT18=
EXTT19=
EXTT20=
EXTT21=
EXTT22=
EXTT23=
EXTT24=
EXTT25=
EXTT26=
EXTT27=
EXTT28=
PLAYORDER=
